{
	"asset":{
		"generator":"Khronos glTF Blender I/O v5.1.20",
		"version":"2.0"
	},
	"extensionsUsed":[
		"KHR_materials_clearcoat",
		"KHR_materials_emissive_strength",
		"KHR_materials_specular",
		"KHR_materials_ior"
	],
	"scene":0,
	"scenes":[
		{
			"name":"Scene",
			"nodes":[
				12
			]
		}
	],
	"nodes":[
		{
			"name":"Looks"
		},
		{
			"mesh":0,
			"name":"PM3D_Cone3D1"
		},
		{
			"mesh":1,
			"name":"PM3D_Cylinder3D1"
		},
		{
			"mesh":2,
			"name":"PM3D_Gear3D1"
		},
		{
			"mesh":3,
			"name":"PM3D_Plane3D1"
		},
		{
			"mesh":4,
			"name":"PM3D_Sphere3D1"
		},
		{
			"mesh":5,
			"name":"PM3D_Sphere3D2"
		},
		{
			"mesh":6,
			"name":"PM3D_Sphere3D2_1"
		},
		{
			"mesh":7,
			"name":"PM3D_Sphere3D2_2"
		},
		{
			"mesh":8,
			"name":"PM3D_Sphere3D2_3"
		},
		{
			"mesh":9,
			"name":"PM3D_Sphere3D2_4"
		},
		{
			"mesh":10,
			"name":"PolySphere"
		},
		{
			"children":[
				0,
				1,
				2,
				3,
				4,
				5,
				6,
				7,
				8,
				9,
				10,
				11
			],
			"name":"tablet_kilker",
			"rotation":[
				0.7071068286895752,
				0,
				0,
				0.7071068286895752
			],
			"scale":[
				0.0033752447925508022,
				0.0033752447925508022,
				0.0033752447925508022
			]
		}
	],
	"materials":[
		{
			"doubleSided":true,
			"name":"Spiked metallic flail material",
			"pbrMetallicRoughness":{
				"baseColorFactor":[
					0.22036734223365784,
					0.22036734223365784,
					0.22036734223365784,
					1
				]
			}
		},
		{
			"doubleSided":true,
			"name":"Simple Blockout Material",
			"pbrMetallicRoughness":{
				"metallicFactor":0
			}
		},
		{
			"doubleSided":true,
			"emissiveFactor":[
				1,
				0.08073661476373672,
				0
			],
			"extensions":{
				"KHR_materials_emissive_strength":{
					"emissiveStrength":18.5
				}
			},
			"name":"Lava Magma 04",
			"pbrMetallicRoughness":{
				"baseColorFactor":[
					0.035444989800453186,
					0.035444989800453186,
					0.035444989800453186,
					1
				]
			}
		},
		{
			"doubleSided":true,
			"emissiveFactor":[
				1,
				1,
				1
			],
			"extensions":{
				"KHR_materials_clearcoat":{
					"clearcoatFactor":0.25,
					"clearcoatRoughnessFactor":1
				},
				"KHR_materials_emissive_strength":{
					"emissiveStrength":3
				},
				"KHR_materials_specular":{
					"specularColorFactor":[
						1.1720000505447388,
						1.1720000505447388,
						1.1720000505447388
					]
				},
				"KHR_materials_ior":{
					"ior":1.4500000476837158
				}
			},
			"name":"Sea Pearl",
			"pbrMetallicRoughness":{
				"metallicFactor":0.05000000074505806,
				"roughnessFactor":0.25
			}
		},
		{
			"doubleSided":true,
			"name":"Velvet Whisper"
		},
		{
			"doubleSided":true,
			"name":"Felt Textile"
		},
		{
			"doubleSided":true,
			"name":"Spectrum Sheath"
		},
		{
			"doubleSided":true,
			"emissiveFactor":[
				1,
				1,
				1
			],
			"emissiveTexture":{
				"index":0
			},
			"extensions":{
				"KHR_materials_emissive_strength":{
					"emissiveStrength":8
				}
			},
			"name":"LED display shader",
			"pbrMetallicRoughness":{
				"baseColorFactor":[
					0,
					0,
					0,
					1
				]
			}
		}
	],
	"meshes":[
		{
			"name":"PM3D_Cone3D1",
			"primitives":[
				{
					"attributes":{
						"POSITION":0,
						"NORMAL":1,
						"TEXCOORD_0":2,
						"TEXCOORD_1":3
					},
					"indices":4,
					"material":0
				}
			]
		},
		{
			"name":"PM3D_Cylinder3D1",
			"primitives":[
				{
					"attributes":{
						"POSITION":5,
						"NORMAL":6,
						"TEXCOORD_0":7,
						"TEXCOORD_1":8
					},
					"indices":9,
					"material":1
				}
			]
		},
		{
			"name":"PM3D_Gear3D1",
			"primitives":[
				{
					"attributes":{
						"POSITION":10,
						"NORMAL":11,
						"TEXCOORD_0":12,
						"TEXCOORD_1":13
					},
					"indices":14,
					"material":2
				}
			]
		},
		{
			"name":"PM3D_Plane3D1",
			"primitives":[
				{
					"attributes":{
						"POSITION":15,
						"NORMAL":16,
						"TEXCOORD_0":17,
						"TEXCOORD_1":18
					},
					"indices":19,
					"material":3
				}
			]
		},
		{
			"name":"PM3D_Sphere3D1",
			"primitives":[
				{
					"attributes":{
						"POSITION":20,
						"NORMAL":21,
						"TEXCOORD_0":22,
						"TEXCOORD_1":23
					},
					"indices":24,
					"material":4
				}
			]
		},
		{
			"name":"PM3D_Sphere3D2",
			"primitives":[
				{
					"attributes":{
						"POSITION":25,
						"NORMAL":26,
						"TEXCOORD_0":27,
						"TEXCOORD_1":28
					},
					"indices":24,
					"material":5
				}
			]
		},
		{
			"name":"PM3D_Sphere3D2_1",
			"primitives":[
				{
					"attributes":{
						"POSITION":29,
						"NORMAL":30,
						"TEXCOORD_0":31,
						"TEXCOORD_1":32
					},
					"indices":33,
					"material":5
				}
			]
		},
		{
			"name":"PM3D_Sphere3D2_2",
			"primitives":[
				{
					"attributes":{
						"POSITION":34,
						"NORMAL":35,
						"TEXCOORD_0":36,
						"TEXCOORD_1":37
					},
					"indices":33,
					"material":4
				}
			]
		},
		{
			"name":"PM3D_Sphere3D2_3",
			"primitives":[
				{
					"attributes":{
						"POSITION":38,
						"NORMAL":39,
						"TEXCOORD_0":40,
						"TEXCOORD_1":41
					},
					"indices":42,
					"material":6
				}
			]
		},
		{
			"name":"PM3D_Sphere3D2_4",
			"primitives":[
				{
					"attributes":{
						"POSITION":43,
						"NORMAL":44,
						"TEXCOORD_0":45,
						"TEXCOORD_1":46
					},
					"indices":47,
					"material":6
				}
			]
		},
		{
			"name":"PolySphere",
			"primitives":[
				{
					"attributes":{
						"POSITION":48,
						"NORMAL":49,
						"TEXCOORD_0":50
					},
					"indices":51,
					"material":7
				}
			]
		}
	],
	"textures":[
		{
			"sampler":0,
			"source":0
		}
	],
	"images":[
		{
			"mimeType":"image/png",
			"name":"roblox hak.png",
			"uri":"../../Downloads/roblox%20hak.png"
		}
	],
	"accessors":[
		{
			"bufferView":0,
			"componentType":5126,
			"count":694,
			"max":[
				0.23225893080234528,
				-0.23610326647758484,
				-0.9806594848632812
			],
			"min":[
				-0.18206538259983063,
				-1.3034415245056152,
				-1.3793563842773438
			],
			"type":"VEC3"
		},
		{
			"bufferView":1,
			"componentType":5126,
			"count":694,
			"type":"VEC3"
		},
		{
			"bufferView":2,
			"componentType":5126,
			"count":694,
			"type":"VEC2"
		},
		{
			"bufferView":3,
			"componentType":5126,
			"count":694,
			"type":"VEC2"
		},
		{
			"bufferView":4,
			"componentType":5123,
			"count":2880,
			"type":"SCALAR"
		},
		{
			"bufferView":5,
			"componentType":5126,
			"count":819,
			"max":[
				0.3965896666049957,
				0.2580714523792267,
				-2.317955255508423
			],
			"min":[
				-0.26852118968963623,
				-0.30596446990966797,
				-4.318603515625
			],
			"type":"VEC3"
		},
		{
			"bufferView":6,
			"componentType":5126,
			"count":819,
			"type":"VEC3"
		},
		{
			"bufferView":7,
			"componentType":5126,
			"count":819,
			"type":"VEC2"
		},
		{
			"bufferView":8,
			"componentType":5126,
			"count":819,
			"type":"VEC2"
		},
		{
			"bufferView":9,
			"componentType":5123,
			"count":2880,
			"type":"SCALAR"
		},
		{
			"bufferView":10,
			"componentType":5126,
			"count":9818,
			"max":[
				2.051344394683838,
				-0.10209453105926514,
				-0.050195127725601196
			],
			"min":[
				-1.991852045059204,
				-0.39924636483192444,
				-2.3164896965026855
			],
			"type":"VEC3"
		},
		{
			"bufferView":11,
			"componentType":5126,
			"count":9818,
			"type":"VEC3"
		},
		{
			"bufferView":12,
			"componentType":5126,
			"count":9818,
			"type":"VEC2"
		},
		{
			"bufferView":13,
			"componentType":5126,
			"count":9818,
			"type":"VEC2"
		},
		{
			"bufferView":14,
			"componentType":5123,
			"count":49152,
			"type":"SCALAR"
		},
		{
			"bufferView":15,
			"componentType":5126,
			"count":1089,
			"max":[
				0.7896499037742615,
				0.24618715047836304,
				-0.3543027639389038
			],
			"min":[
				-0.7896499037742615,
				0.24618715047836304,
				-1.632422685623169
			],
			"type":"VEC3"
		},
		{
			"bufferView":16,
			"componentType":5126,
			"count":1089,
			"type":"VEC3"
		},
		{
			"bufferView":17,
			"componentType":5126,
			"count":1089,
			"type":"VEC2"
		},
		{
			"bufferView":18,
			"componentType":5126,
			"count":1089,
			"type":"VEC2"
		},
		{
			"bufferView":19,
			"componentType":5123,
			"count":6144,
			"type":"SCALAR"
		},
		{
			"bufferView":20,
			"componentType":5126,
			"count":8981,
			"max":[
				1.4014832973480225,
				0.2848713994026184,
				-1.2001888751983643
			],
			"min":[
				1.1791976690292358,
				0.16839085519313812,
				-1.4510095119476318
			],
			"type":"VEC3"
		},
		{
			"bufferView":21,
			"componentType":5126,
			"count":8981,
			"type":"VEC3"
		},
		{
			"bufferView":22,
			"componentType":5126,
			"count":8981,
			"type":"VEC2"
		},
		{
			"bufferView":23,
			"componentType":5126,
			"count":8981,
			"type":"VEC2"
		},
		{
			"bufferView":24,
			"componentType":5123,
			"count":48384,
			"type":"SCALAR"
		},
		{
			"bufferView":25,
			"componentType":5126,
			"count":8981,
			"max":[
				1.4014832973480225,
				0.2848713994026184,
				-0.9026285409927368
			],
			"min":[
				1.1791976690292358,
				0.16839085519313812,
				-1.1534496545791626
			],
			"type":"VEC3"
		},
		{
			"bufferView":26,
			"componentType":5126,
			"count":8981,
			"type":"VEC3"
		},
		{
			"bufferView":27,
			"componentType":5126,
			"count":8981,
			"type":"VEC2"
		},
		{
			"bufferView":28,
			"componentType":5126,
			"count":8981,
			"type":"VEC2"
		},
		{
			"bufferView":29,
			"componentType":5126,
			"count":8977,
			"max":[
				-1.083039402961731,
				0.2698713541030884,
				-1.0713473558425903
			],
			"min":[
				-1.3091200590133667,
				0.1608939915895462,
				-1.322167992591858
			],
			"type":"VEC3"
		},
		{
			"bufferView":30,
			"componentType":5126,
			"count":8977,
			"type":"VEC3"
		},
		{
			"bufferView":31,
			"componentType":5126,
			"count":8977,
			"type":"VEC2"
		},
		{
			"bufferView":32,
			"componentType":5126,
			"count":8977,
			"type":"VEC2"
		},
		{
			"bufferView":33,
			"componentType":5123,
			"count":48384,
			"type":"SCALAR"
		},
		{
			"bufferView":34,
			"componentType":5126,
			"count":8977,
			"max":[
				-1.083039402961731,
				0.2698713541030884,
				-0.7956507802009583
			],
			"min":[
				-1.3091200590133667,
				0.1608939915895462,
				-1.0464708805084229
			],
			"type":"VEC3"
		},
		{
			"bufferView":35,
			"componentType":5126,
			"count":8977,
			"type":"VEC3"
		},
		{
			"bufferView":36,
			"componentType":5126,
			"count":8977,
			"type":"VEC2"
		},
		{
			"bufferView":37,
			"componentType":5126,
			"count":8977,
			"type":"VEC2"
		},
		{
			"bufferView":38,
			"componentType":5126,
			"count":8901,
			"max":[
				-0.9011192917823792,
				0.2686447203159332,
				-1.5600368976593018
			],
			"min":[
				-1.3909595012664795,
				0.10842740535736084,
				-1.6507670879364014
			],
			"type":"VEC3"
		},
		{
			"bufferView":39,
			"componentType":5126,
			"count":8901,
			"type":"VEC3"
		},
		{
			"bufferView":40,
			"componentType":5126,
			"count":8901,
			"type":"VEC2"
		},
		{
			"bufferView":41,
			"componentType":5126,
			"count":8901,
			"type":"VEC2"
		},
		{
			"bufferView":42,
			"componentType":5123,
			"count":48384,
			"type":"SCALAR"
		},
		{
			"bufferView":43,
			"componentType":5126,
			"count":8893,
			"max":[
				1.4014832973480225,
				0.2848713994026184,
				-1.62395179271698
			],
			"min":[
				1.1791976690292358,
				0.16839085519313812,
				-1.7070637941360474
			],
			"type":"VEC3"
		},
		{
			"bufferView":44,
			"componentType":5126,
			"count":8893,
			"type":"VEC3"
		},
		{
			"bufferView":45,
			"componentType":5126,
			"count":8893,
			"type":"VEC2"
		},
		{
			"bufferView":46,
			"componentType":5126,
			"count":8893,
			"type":"VEC2"
		},
		{
			"bufferView":47,
			"componentType":5123,
			"count":48384,
			"type":"SCALAR"
		},
		{
			"bufferView":48,
			"componentType":5126,
			"count":719084,
			"max":[
				1.8795634508132935,
				0.36600202322006226,
				1.0887638330459595
			],
			"min":[
				-1.8795793056488037,
				-0.615731954574585,
				-2.4215786457061768
			],
			"type":"VEC3"
		},
		{
			"bufferView":49,
			"componentType":5126,
			"count":719084,
			"type":"VEC3"
		},
		{
			"bufferView":50,
			"componentType":5126,
			"count":719084,
			"type":"VEC2"
		},
		{
			"bufferView":51,
			"componentType":5125,
			"count":4178784,
			"type":"SCALAR"
		}
	],
	"bufferViews":[
		{
			"buffer":0,
			"byteLength":8328,
			"byteOffset":0,
			"target":34962
		},
		{
			"buffer":0,
			"byteLength":8328,
			"byteOffset":8328,
			"target":34962
		},
		{
			"buffer":0,
			"byteLength":5552,
			"byteOffset":16656,
			"target":34962
		},
		{
			"buffer":0,
			"byteLength":5552,
			"byteOffset":22208,
			"target":34962
		},
		{
			"buffer":0,
			"byteLength":5760,
			"byteOffset":27760,
			"target":34963
		},
		{
			"buffer":0,
			"byteLength":9828,
			"byteOffset":33520,
			"target":34962
		},
		{
			"buffer":0,
			"byteLength":9828,
			"byteOffset":43348,
			"target":34962
		},
		{
			"buffer":0,
			"byteLength":6552,
			"byteOffset":53176,
			"target":34962
		},
		{
			"buffer":0,
			"byteLength":6552,
			"byteOffset":59728,
			"target":34962
		},
		{
			"buffer":0,
			"byteLength":5760,
			"byteOffset":66280,
			"target":34963
		},
		{
			"buffer":0,
			"byteLength":117816,
			"byteOffset":72040,
			"target":34962
		},
		{
			"buffer":0,
			"byteLength":117816,
			"byteOffset":189856,
			"target":34962
		},
		{
			"buffer":0,
			"byteLength":78544,
			"byteOffset":307672,
			"target":34962
		},
		{
			"buffer":0,
			"byteLength":78544,
			"byteOffset":386216,
			"target":34962
		},
		{
			"buffer":0,
			"byteLength":98304,
			"byteOffset":464760,
			"target":34963
		},
		{
			"buffer":0,
			"byteLength":13068,
			"byteOffset":563064,
			"target":34962
		},
		{
			"buffer":0,
			"byteLength":13068,
			"byteOffset":576132,
			"target":34962
		},
		{
			"buffer":0,
			"byteLength":8712,
			"byteOffset":589200,
			"target":34962
		},
		{
			"buffer":0,
			"byteLength":8712,
			"byteOffset":597912,
			"target":34962
		},
		{
			"buffer":0,
			"byteLength":12288,
			"byteOffset":606624,
			"target":34963
		},
		{
			"buffer":0,
			"byteLength":107772,
			"byteOffset":618912,
			"target":34962
		},
		{
			"buffer":0,
			"byteLength":107772,
			"byteOffset":726684,
			"target":34962
		},
		{
			"buffer":0,
			"byteLength":71848,
			"byteOffset":834456,
			"target":34962
		},
		{
			"buffer":0,
			"byteLength":71848,
			"byteOffset":906304,
			"target":34962
		},
		{
			"buffer":0,
			"byteLength":96768,
			"byteOffset":978152,
			"target":34963
		},
		{
			"buffer":0,
			"byteLength":107772,
			"byteOffset":1074920,
			"target":34962
		},
		{
			"buffer":0,
			"byteLength":107772,
			"byteOffset":1182692,
			"target":34962
		},
		{
			"buffer":0,
			"byteLength":71848,
			"byteOffset":1290464,
			"target":34962
		},
		{
			"buffer":0,
			"byteLength":71848,
			"byteOffset":1362312,
			"target":34962
		},
		{
			"buffer":0,
			"byteLength":107724,
			"byteOffset":1434160,
			"target":34962
		},
		{
			"buffer":0,
			"byteLength":107724,
			"byteOffset":1541884,
			"target":34962
		},
		{
			"buffer":0,
			"byteLength":71816,
			"byteOffset":1649608,
			"target":34962
		},
		{
			"buffer":0,
			"byteLength":71816,
			"byteOffset":1721424,
			"target":34962
		},
		{
			"buffer":0,
			"byteLength":96768,
			"byteOffset":1793240,
			"target":34963
		},
		{
			"buffer":0,
			"byteLength":107724,
			"byteOffset":1890008,
			"target":34962
		},
		{
			"buffer":0,
			"byteLength":107724,
			"byteOffset":1997732,
			"target":34962
		},
		{
			"buffer":0,
			"byteLength":71816,
			"byteOffset":2105456,
			"target":34962
		},
		{
			"buffer":0,
			"byteLength":71816,
			"byteOffset":2177272,
			"target":34962
		},
		{
			"buffer":0,
			"byteLength":106812,
			"byteOffset":2249088,
			"target":34962
		},
		{
			"buffer":0,
			"byteLength":106812,
			"byteOffset":2355900,
			"target":34962
		},
		{
			"buffer":0,
			"byteLength":71208,
			"byteOffset":2462712,
			"target":34962
		},
		{
			"buffer":0,
			"byteLength":71208,
			"byteOffset":2533920,
			"target":34962
		},
		{
			"buffer":0,
			"byteLength":96768,
			"byteOffset":2605128,
			"target":34963
		},
		{
			"buffer":0,
			"byteLength":106716,
			"byteOffset":2701896,
			"target":34962
		},
		{
			"buffer":0,
			"byteLength":106716,
			"byteOffset":2808612,
			"target":34962
		},
		{
			"buffer":0,
			"byteLength":71144,
			"byteOffset":2915328,
			"target":34962
		},
		{
			"buffer":0,
			"byteLength":71144,
			"byteOffset":2986472,
			"target":34962
		},
		{
			"buffer":0,
			"byteLength":96768,
			"byteOffset":3057616,
			"target":34963
		},
		{
			"buffer":0,
			"byteLength":8629008,
			"byteOffset":3154384,
			"target":34962
		},
		{
			"buffer":0,
			"byteLength":8629008,
			"byteOffset":11783392,
			"target":34962
		},
		{
			"buffer":0,
			"byteLength":5752672,
			"byteOffset":20412400,
			"target":34962
		},
		{
			"buffer":0,
			"byteLength":16715136,
			"byteOffset":26165072,
			"target":34963
		}
	],
	"samplers":[
		{
			"magFilter":9729,
			"minFilter":9987
		}
	],
	"buffers":[
		{
			"byteLength":42880208,
			"uri":"TABLETnew1.bin"
		}
	]
}
